<svg id="graph-classdiagram" width="100%" xmlns="http://www.w3.org/2000/svg" style="max-width: 1118.744140625px;" viewBox="0 0 1118.744140625 1382" role="graphics-document document" aria-roledescription="classDiagram"><rect x="0" y="0" width="1118.744140625" height="1382" fill="#ffffff"/><style>#graph-classdiagram{font-family:"trebuchet ms",verdana,arial,sans-serif;font-size:16px;fill:#333;}#graph-classdiagram .error-icon{fill:#552222;}#graph-classdiagram .error-text{fill:#552222;stroke:#552222;}#graph-classdiagram .edge-thickness-normal{stroke-width:2px;}#graph-classdiagram .edge-thickness-thick{stroke-width:3.5px;}#graph-classdiagram .edge-pattern-solid{stroke-dasharray:0;}#graph-classdiagram .edge-pattern-dashed{stroke-dasharray:3;}#graph-classdiagram .edge-pattern-dotted{stroke-dasharray:2;}#graph-classdiagram .marker{fill:#333333;stroke:#333333;}#graph-classdiagram .marker.cross{stroke:#333333;}#graph-classdiagram svg{font-family:"trebuchet ms",verdana,arial,sans-serif;font-size:16px;}#graph-classdiagram g.classGroup text{fill:#9370DB;stroke:none;font-family:"trebuchet ms",verdana,arial,sans-serif;font-size:10px;}#graph-classdiagram g.classGroup text .title{font-weight:bolder;}#graph-classdiagram .nodeLabel,#graph-classdiagram .edgeLabel{color:#131300;}#graph-classdiagram .edgeLabel .label rect{fill:#ECECFF;}#graph-classdiagram .label text{fill:#131300;}#graph-classdiagram .edgeLabel .label span{background:#ECECFF;}#graph-classdiagram .classTitle{font-weight:bolder;}#graph-classdiagram .node rect,#graph-classdiagram .node circle,#graph-classdiagram .node ellipse,#graph-classdiagram .node polygon,#graph-classdiagram .node path{fill:#ECECFF;stroke:#9370DB;stroke-width:1px;}#graph-classdiagram .divider{stroke:#9370DB;stroke-width:1;}#graph-classdiagram g.clickable{cursor:pointer;}#graph-classdiagram g.classGroup rect{fill:#ECECFF;stroke:#9370DB;}#graph-classdiagram g.classGroup line{stroke:#9370DB;stroke-width:1;}#graph-classdiagram .classLabel .box{stroke:none;stroke-width:0;fill:#ECECFF;opacity:0.5;}#graph-classdiagram .classLabel .label{fill:#9370DB;font-size:10px;}#graph-classdiagram .relation{stroke:#333333;stroke-width:1;fill:none;}#graph-classdiagram .dashed-line{stroke-dasharray:3;}#graph-classdiagram .dotted-line{stroke-dasharray:1 2;}#graph-classdiagram #compositionStart,#graph-classdiagram .composition{fill:#333333!important;stroke:#333333!important;stroke-width:1;}#graph-classdiagram #compositionEnd,#graph-classdiagram .composition{fill:#333333!important;stroke:#333333!important;stroke-width:1;}#graph-classdiagram #dependencyStart,#graph-classdiagram .dependency{fill:#333333!important;stroke:#333333!important;stroke-width:1;}#graph-classdiagram #dependencyStart,#graph-classdiagram .dependency{fill:#333333!important;stroke:#333333!important;stroke-width:1;}#graph-classdiagram #extensionStart,#graph-classdiagram .extension{fill:transparent!important;stroke:#333333!important;stroke-width:1;}#graph-classdiagram #extensionEnd,#graph-classdiagram .extension{fill:transparent!important;stroke:#333333!important;stroke-width:1;}#graph-classdiagram #aggregationStart,#graph-classdiagram .aggregation{fill:transparent!important;stroke:#333333!important;stroke-width:1;}#graph-classdiagram #aggregationEnd,#graph-classdiagram .aggregation{fill:transparent!important;stroke:#333333!important;stroke-width:1;}#graph-classdiagram #lollipopStart,#graph-classdiagram .lollipop{fill:#ECECFF!important;stroke:#333333!important;stroke-width:1;}#graph-classdiagram #lollipopEnd,#graph-classdiagram .lollipop{fill:#ECECFF!important;stroke:#333333!important;stroke-width:1;}#graph-classdiagram .edgeTerminals{font-size:11px;line-height:initial;}#graph-classdiagram .classTitleText{text-anchor:middle;font-size:18px;fill:#333;}#graph-classdiagram :root{--mermaid-font-family:"trebuchet ms",verdana,arial,sans-serif;}</style><g><defs><marker id="graph-classdiagram_classDiagram-aggregationStart" class="marker aggregation classDiagram" refX="18" refY="7" markerWidth="190" markerHeight="240" orient="auto"><path d="M 18,7 L9,13 L1,7 L9,1 Z"></path></marker></defs><defs><marker id="graph-classdiagram_classDiagram-aggregationEnd" class="marker aggregation classDiagram" refX="1" refY="7" markerWidth="20" markerHeight="28" orient="auto"><path d="M 18,7 L9,13 L1,7 L9,1 Z"></path></marker></defs><defs><marker id="graph-classdiagram_classDiagram-extensionStart" class="marker extension classDiagram" refX="18" refY="7" markerWidth="190" markerHeight="240" orient="auto"><path d="M 1,7 L18,13 V 1 Z"></path></marker></defs><defs><marker id="graph-classdiagram_classDiagram-extensionEnd" class="marker extension classDiagram" refX="1" refY="7" markerWidth="20" markerHeight="28" orient="auto"><path d="M 1,1 V 13 L18,7 Z"></path></marker></defs><defs><marker id="graph-classdiagram_classDiagram-compositionStart" class="marker composition classDiagram" refX="18" refY="7" markerWidth="190" markerHeight="240" orient="auto"><path d="M 18,7 L9,13 L1,7 L9,1 Z"></path></marker></defs><defs><marker id="graph-classdiagram_classDiagram-compositionEnd" class="marker composition classDiagram" refX="1" refY="7" markerWidth="20" markerHeight="28" orient="auto"><path d="M 18,7 L9,13 L1,7 L9,1 Z"></path></marker></defs><defs><marker id="graph-classdiagram_classDiagram-dependencyStart" class="marker dependency classDiagram" refX="6" refY="7" markerWidth="190" markerHeight="240" orient="auto"><path d="M 5,7 L9,13 L1,7 L9,1 Z"></path></marker></defs><defs><marker id="graph-classdiagram_classDiagram-dependencyEnd" class="marker dependency classDiagram" refX="13" refY="7" markerWidth="20" markerHeight="28" orient="auto"><path d="M 18,7 L9,13 L14,7 L9,1 Z"></path></marker></defs><defs><marker id="graph-classdiagram_classDiagram-lollipopStart" class="marker lollipop classDiagram" refX="13" refY="7" markerWidth="190" markerHeight="240" orient="auto"><circle stroke="black" fill="transparent" cx="7" cy="7" r="6"></circle></marker></defs><defs><marker id="graph-classdiagram_classDiagram-lollipopEnd" class="marker lollipop classDiagram" refX="1" refY="7" markerWidth="190" markerHeight="240" orient="auto"><circle stroke="black" fill="transparent" cx="7" cy="7" r="6"></circle></marker></defs><g class="root"><g class="clusters"></g><g class="edgePaths"><path d="M440.188,292.305L474.082,301.921C507.977,311.537,575.767,330.768,609.662,363.801C643.557,396.833,643.557,443.667,643.557,490.5C643.557,537.333,643.557,584.167,653.892,625.324C664.228,666.482,684.899,701.965,695.235,719.706L705.571,737.447" id="id_MomentService_MomentServiceContract_1" class="edge-pattern-dashed relation" style="fill:none" marker-end="url(#graph-classdiagram_classDiagram-extensionEnd)"></path><path d="M224.094,325L224.094,329.167C224.094,333.333,224.094,341.667,228.714,351.004C233.335,360.342,242.576,370.684,247.197,375.855L251.818,381.026" id="id_MomentService_MomentRepository_2" class="edge-pattern-solid relation" style="fill:none" marker-end="url(#graph-classdiagram_classDiagram-dependencyEnd)"></path><path d="M894.65,606L894.65,610.167C894.65,614.333,894.65,622.667,883.308,646.303C871.965,669.939,849.28,708.877,837.938,728.346L826.595,747.816" id="id_MomentController_MomentServiceContract_3" class="edge-pattern-solid relation" style="fill:none" marker-end="url(#graph-classdiagram_classDiagram-dependencyEnd)"></path><path d="M779.104,291L779.104,300.833C779.104,310.667,779.104,330.333,781.895,343.561C784.686,356.789,790.269,363.577,793.061,366.972L795.852,370.366" id="id_ConsoleView_MomentController_4" class="edge-pattern-solid relation" style="fill:none" marker-end="url(#graph-classdiagram_classDiagram-dependencyEnd)"></path><path d="M349.641,595.5L349.641,601.417C349.641,607.333,349.641,619.167,349.641,628.25C349.641,637.333,349.641,643.667,349.641,646.833L349.641,650" id="id_MomentRepository_Moment_5" class="edge-pattern-solid relation" style="fill:none" marker-end="url(#graph-classdiagram_classDiagram-dependencyEnd)"></path><path d="M349.641,1037L349.641,1041.167C349.641,1045.333,349.641,1053.667,349.641,1061C349.641,1068.333,349.641,1074.667,349.641,1077.833L349.641,1081" id="id_Moment_Emotion_6" class="edge-pattern-solid relation" style="fill:none" marker-end="url(#graph-classdiagram_classDiagram-dependencyEnd)"></path><path d="M579.013,87L572.204,91.167C565.396,95.333,551.779,103.667,544.971,127.667C538.162,151.667,538.162,191.333,538.162,231C538.162,270.667,538.162,310.333,531.025,335.486C523.888,360.638,509.614,371.276,502.477,376.595L495.339,381.915" id="id_App_MomentRepository_7" class="edge-pattern-solid relation" style="fill:none" marker-end="url(#graph-classdiagram_classDiagram-dependencyEnd)"></path><path d="M562.025,60.037L505.703,68.697C449.382,77.358,336.738,94.679,280.416,106.506C224.094,118.333,224.094,124.667,224.094,127.833L224.094,131" id="id_App_MomentService_8" class="edge-pattern-solid relation" style="fill:none" marker-end="url(#graph-classdiagram_classDiagram-dependencyEnd)"></path><path d="M725.088,63.034L767.922,71.195C810.755,79.356,896.423,95.678,939.256,123.672C982.09,151.667,982.09,191.333,982.09,231C982.09,270.667,982.09,310.333,980.025,333.484C977.96,356.635,973.831,363.271,971.766,366.588L969.701,369.906" id="id_App_MomentController_9" class="edge-pattern-solid relation" style="fill:none" marker-end="url(#graph-classdiagram_classDiagram-dependencyEnd)"></path><path d="M725.088,86.297L734.09,90.581C743.093,94.864,761.098,103.432,770.101,116.549C779.104,129.667,779.104,147.333,779.104,156.167L779.104,165" id="id_App_ConsoleView_10" class="edge-pattern-solid relation" style="fill:none" marker-end="url(#graph-classdiagram_classDiagram-dependencyEnd)"></path></g><g class="edgeLabels"><g class="edgeLabel"><g class="label" transform="translate(0, 0)"><rect rx="0" ry="0" width="0" height="0"></rect><text style=""><tspan xml:space="preserve" dy="1em" x="0" class="row"></tspan></text></g></g><g class="edgeLabel"><g class="label" transform="translate(0, 0)"><rect rx="0" ry="0" width="0" height="0"></rect><text style=""><tspan xml:space="preserve" dy="1em" x="0" class="row"></tspan></text></g></g><g class="edgeLabel"><g class="label" transform="translate(0, 0)"><rect rx="0" ry="0" width="0" height="0"></rect><text style=""><tspan xml:space="preserve" dy="1em" x="0" class="row"></tspan></text></g></g><g class="edgeLabel"><g class="label" transform="translate(0, 0)"><rect rx="0" ry="0" width="0" height="0"></rect><text style=""><tspan xml:space="preserve" dy="1em" x="0" class="row"></tspan></text></g></g><g class="edgeLabel"><g class="label" transform="translate(0, 0)"><rect rx="0" ry="0" width="0" height="0"></rect><text style=""><tspan xml:space="preserve" dy="1em" x="0" class="row"></tspan></text></g></g><g class="edgeLabel"><g class="label" transform="translate(0, 0)"><rect rx="0" ry="0" width="0" height="0"></rect><text style=""><tspan xml:space="preserve" dy="1em" x="0" class="row"></tspan></text></g></g><g class="edgeLabel"><g class="label" transform="translate(0, 0)"><rect rx="0" ry="0" width="0" height="0"></rect><text style=""><tspan xml:space="preserve" dy="1em" x="0" class="row"></tspan></text></g></g><g class="edgeLabel"><g class="label" transform="translate(0, 0)"><rect rx="0" ry="0" width="0" height="0"></rect><text style=""><tspan xml:space="preserve" dy="1em" x="0" class="row"></tspan></text></g></g><g class="edgeLabel"><g class="label" transform="translate(0, 0)"><rect rx="0" ry="0" width="0" height="0"></rect><text style=""><tspan xml:space="preserve" dy="1em" x="0" class="row"></tspan></text></g></g><g class="edgeLabel"><g class="label" transform="translate(0, 0)"><rect rx="0" ry="0" width="0" height="0"></rect><text style=""><tspan xml:space="preserve" dy="1em" x="0" class="row"></tspan></text></g></g></g><g class="nodes"><g class="node default" id="classId-Emotion-0" data-node="true" data-id="Emotion" transform="translate(349.640625, 1230.5)"><rect style="" class="outer title-state" x="-68.6953125" y="-143.5" width="137.390625" height="287"></rect><line class="divider" x1="-68.6953125" x2="68.6953125" y1="-93.5" y2="-93.5"></line><line class="divider" x1="-68.6953125" x2="68.6953125" y1="132.5" y2="132.5"></line><g class="label"><text style="" transform="translate( -53.421875, -136)"><tspan xml:space="preserve" dy="1em" x="0" class="title-row">«enumeration»</tspan></text><text style="" class="classTitle" transform="translate( -32, -115)"><tspan xml:space="preserve" dy="1em" x="0" class="title-row">Emotion</tspan></text><text style="" transform="translate( -61.1953125, -82)"><tspan xml:space="preserve" dy="1em" x="0" class="title-row">ALEGRIA</tspan></text><text style="" transform="translate( -61.1953125, -61)"><tspan xml:space="preserve" dy="1em" x="0" class="title-row">TRISTEZA</tspan></text><text style="" transform="translate( -61.1953125, -40)"><tspan xml:space="preserve" dy="1em" x="0" class="title-row">IRA</tspan></text><text style="" transform="translate( -61.1953125, -19)"><tspan xml:space="preserve" dy="1em" x="0" class="title-row">ASCO</tspan></text><text style="" transform="translate( -61.1953125, 2)"><tspan xml:space="preserve" dy="1em" x="0" class="title-row">MIEDO</tspan></text><text style="" transform="translate( -61.1953125, 23)"><tspan xml:space="preserve" dy="1em" x="0" class="title-row">ANSIEDAD</tspan></text><text style="" transform="translate( -61.1953125, 44)"><tspan xml:space="preserve" dy="1em" x="0" class="title-row">ENVIDIA</tspan></text><text style="" transform="translate( -61.1953125, 65)"><tspan xml:space="preserve" dy="1em" x="0" class="title-row">VERGUENZA</tspan></text><text style="" transform="translate( -61.1953125, 86)"><tspan xml:space="preserve" dy="1em" x="0" class="title-row">ABURRIMIENTO</tspan></text><text style="" transform="translate( -61.1953125, 107)"><tspan xml:space="preserve" dy="1em" x="0" class="title-row">NOSTALGIA</tspan></text></g></g><g class="node default" id="classId-Moment-1" data-node="true" data-id="Moment" transform="translate(349.640625, 846.5)"><rect style="" class="outer title-state" x="-130.94921875" y="-190.5" width="261.8984375" height="381"></rect><line class="divider" x1="-130.94921875" x2="130.94921875" y1="-161.5" y2="-161.5"></line><line class="divider" x1="-130.94921875" x2="130.94921875" y1="3.5" y2="3.5"></line><g class="label"><text style=""><tspan xml:space="preserve" dy="1em" x="0" class="title-row"></tspan></text><text style="" class="classTitle" transform="translate( -31, -183)"><tspan xml:space="preserve" dy="1em" x="0" class="title-row">Moment</tspan></text><text style="" transform="translate( -123.44921875, -150)"><tspan xml:space="preserve" dy="1em" x="0" class="title-row">-int id</tspan></text><text style="" transform="translate( -123.44921875, -129)"><tspan xml:space="preserve" dy="1em" x="0" class="title-row">-String title</tspan></text><text style="" transform="translate( -123.44921875, -107)"><tspan xml:space="preserve" dy="1em" x="0" class="title-row">-String description</tspan></text><text style="" transform="translate( -123.44921875, -85)"><tspan xml:space="preserve" dy="1em" x="0" class="title-row">-Emotion emotion</tspan></text><text style="" transform="translate( -123.44921875, -64)"><tspan xml:space="preserve" dy="1em" x="0" class="title-row">-LocalDate momentDate</tspan></text><text style="" transform="translate( -123.44921875, -43)"><tspan xml:space="preserve" dy="1em" x="0" class="title-row">-LocalDate creationDate</tspan></text><text style="" transform="translate( -123.44921875, -22)"><tspan xml:space="preserve" dy="1em" x="0" class="title-row">-LocalDate modificationDate</tspan></text><text style="" transform="translate( -123.44921875, 11)"><tspan xml:space="preserve" dy="1em" x="0" class="title-row">+getId() : int</tspan></text><text style="" transform="translate( -123.44921875, 33)"><tspan xml:space="preserve" dy="1em" x="0" class="title-row">+setId(int) : void</tspan></text><text style="" transform="translate( -123.44921875, 55)"><tspan xml:space="preserve" dy="1em" x="0" class="title-row">+getTitle() : String</tspan></text><text style="" transform="translate( -123.44921875, 77)"><tspan xml:space="preserve" dy="1em" x="0" class="title-row">+getDescription() : String</tspan></text><text style="" transform="translate( -123.44921875, 99)"><tspan xml:space="preserve" dy="1em" x="0" class="title-row">+getEmotion() : Emotion</tspan></text><text style="" transform="translate( -123.44921875, 121)"><tspan xml:space="preserve" dy="1em" x="0" class="title-row">+getMomentDate() : LocalDate</tspan></text><text style="" transform="translate( -123.44921875, 143)"><tspan xml:space="preserve" dy="1em" x="0" class="title-row">+getCreationDate() : LocalDate</tspan></text><text style="" transform="translate( -123.44921875, 165)"><tspan xml:space="preserve" dy="1em" x="0" class="title-row">+getModificationDate() : LocalDate</tspan></text></g></g><g class="node default" id="classId-MomentRepository-2" data-node="true" data-id="MomentRepository" transform="translate(349.640625, 490.5)"><rect style="" class="outer title-state" x="-155.7890625" y="-105" width="311.578125" height="210"></rect><line class="divider" x1="-155.7890625" x2="155.7890625" y1="-75" y2="-75"></line><line class="divider" x1="-155.7890625" x2="155.7890625" y1="-16" y2="-16"></line><g class="label"><text style=""><tspan xml:space="preserve" dy="1em" x="0" class="title-row"></tspan></text><text style="" class="classTitle" transform="translate( -72.5, -97.5)"><tspan xml:space="preserve" dy="1em" x="0" class="title-row">MomentRepository</tspan></text><text style="" transform="translate( -148.2890625, -63.5)"><tspan xml:space="preserve" dy="1em" x="0" class="title-row">-Map&lt;Integer, Moment&gt; moments</tspan></text><text style="" transform="translate( -148.2890625, -41.5)"><tspan xml:space="preserve" dy="1em" x="0" class="title-row">-int nextId</tspan></text><text style="" transform="translate( -148.2890625, -8.5)"><tspan xml:space="preserve" dy="1em" x="0" class="title-row">+save(Moment) : Moment</tspan></text><text style="" transform="translate( -148.2890625, 13.5)"><tspan xml:space="preserve" dy="1em" x="0" class="title-row">+findAll() : List&lt;Moment&gt;</tspan></text><text style="" transform="translate( -148.2890625, 35.5)"><tspan xml:space="preserve" dy="1em" x="0" class="title-row">+deleteById(int) : boolean</tspan></text><text style="" transform="translate( -148.2890625, 57.5)"><tspan xml:space="preserve" dy="1em" x="0" class="title-row">+findByEmotion(Emotion) : List&lt;Moment&gt;</tspan></text><text style="" transform="translate( -148.2890625, 79.5)"><tspan xml:space="preserve" dy="1em" x="0" class="title-row">+findByDate(LocalDate) : List&lt;Moment&gt;</tspan></text></g></g><g class="node default" id="classId-MomentServiceContract-3" data-node="true" data-id="MomentServiceContract" transform="translate(769.103515625, 846.5)"><rect style="" class="outer title-state" x="-216.09375" y="-93.5" width="432.1875" height="187"></rect><line class="divider" x1="-216.09375" x2="216.09375" y1="-43.5" y2="-43.5"></line><line class="divider" x1="-216.09375" x2="216.09375" y1="-27.5" y2="-27.5"></line><g class="label"><text style="" transform="translate( -39.6328125, -86)"><tspan xml:space="preserve" dy="1em" x="0" class="title-row">«interface»</tspan></text><text style="" class="classTitle" transform="translate( -92.359375, -65)"><tspan xml:space="preserve" dy="1em" x="0" class="title-row">MomentServiceContract</tspan></text><text style="" transform="translate( -208.59375, -20)"><tspan xml:space="preserve" dy="1em" x="0" class="title-row">+addMoment(String, String, Emotion, LocalDate) : Moment</tspan></text><text style="" transform="translate( -208.59375, 2)"><tspan xml:space="preserve" dy="1em" x="0" class="title-row">+getAllMoments() : List&lt;Moment&gt;</tspan></text><text style="" transform="translate( -208.59375, 24)"><tspan xml:space="preserve" dy="1em" x="0" class="title-row">+deleteMoment(int) : boolean</tspan></text><text style="" transform="translate( -208.59375, 46)"><tspan xml:space="preserve" dy="1em" x="0" class="title-row">+filterByEmotion(Emotion) : List&lt;Moment&gt;</tspan></text><text style="" transform="translate( -208.59375, 68)"><tspan xml:space="preserve" dy="1em" x="0" class="title-row">+filterByDate(LocalDate) : List&lt;Moment&gt;</tspan></text></g></g><g class="node default" id="classId-MomentService-4" data-node="true" data-id="MomentService" transform="translate(224.09375, 231)"><rect style="" class="outer title-state" x="-216.09375" y="-94" width="432.1875" height="188"></rect><line class="divider" x1="-216.09375" x2="216.09375" y1="-65" y2="-65"></line><line class="divider" x1="-216.09375" x2="216.09375" y1="-27" y2="-27"></line><g class="label"><text style=""><tspan xml:space="preserve" dy="1em" x="0" class="title-row"></tspan></text><text style="" class="classTitle" transform="translate( -59.18359375, -86.5)"><tspan xml:space="preserve" dy="1em" x="0" class="title-row">MomentService</tspan></text><text style="" transform="translate( -208.59375, -53.5)"><tspan xml:space="preserve" dy="1em" x="0" class="title-row">-MomentRepository momentRepository</tspan></text><text style="" transform="translate( -208.59375, -19.5)"><tspan xml:space="preserve" dy="1em" x="0" class="title-row">+addMoment(String, String, Emotion, LocalDate) : Moment</tspan></text><text style="" transform="translate( -208.59375, 2.5)"><tspan xml:space="preserve" dy="1em" x="0" class="title-row">+getAllMoments() : List&lt;Moment&gt;</tspan></text><text style="" transform="translate( -208.59375, 24.5)"><tspan xml:space="preserve" dy="1em" x="0" class="title-row">+deleteMoment(int) : boolean</tspan></text><text style="" transform="translate( -208.59375, 46.5)"><tspan xml:space="preserve" dy="1em" x="0" class="title-row">+filterByEmotion(Emotion) : List&lt;Moment&gt;</tspan></text><text style="" transform="translate( -208.59375, 68.5)"><tspan xml:space="preserve" dy="1em" x="0" class="title-row">+filterByDate(LocalDate) : List&lt;Moment&gt;</tspan></text></g></g><g class="node default" id="classId-MomentController-5" data-node="true" data-id="MomentController" transform="translate(894.650390625, 490.5)"><rect style="" class="outer title-state" x="-216.09375" y="-115.5" width="432.1875" height="231"></rect><line class="divider" x1="-216.09375" x2="216.09375" y1="-86.5" y2="-86.5"></line><line class="divider" x1="-216.09375" x2="216.09375" y1="-49.5" y2="-49.5"></line><g class="label"><text style=""><tspan xml:space="preserve" dy="1em" x="0" class="title-row"></tspan></text><text style="" class="classTitle" transform="translate( -68.890625, -108)"><tspan xml:space="preserve" dy="1em" x="0" class="title-row">MomentController</tspan></text><text style="" transform="translate( -208.59375, -75)"><tspan xml:space="preserve" dy="1em" x="0" class="title-row">-MomentServiceContract momentService</tspan></text><text style="" transform="translate( -208.59375, -42)"><tspan xml:space="preserve" dy="1em" x="0" class="title-row">+addMoment(String, String, LocalDate, Emotion) : Moment</tspan></text><text style="" transform="translate( -208.59375, -20)"><tspan xml:space="preserve" dy="1em" x="0" class="title-row">+getAllMoments() : List&lt;Moment&gt;</tspan></text><text style="" transform="translate( -208.59375, 2)"><tspan xml:space="preserve" dy="1em" x="0" class="title-row">+deleteMoment(String) : boolean</tspan></text><text style="" transform="translate( -208.59375, 24)"><tspan xml:space="preserve" dy="1em" x="0" class="title-row">+filterByEmotion(String) : List&lt;Moment&gt;</tspan></text><text style="" transform="translate( -208.59375, 46)"><tspan xml:space="preserve" dy="1em" x="0" class="title-row">+filterByDate(String) : List&lt;Moment&gt;</tspan></text><text style="" transform="translate( -208.59375, 68)"><tspan xml:space="preserve" dy="1em" x="0" class="title-row">+parseDate(String) : LocalDate</tspan></text><text style="" transform="translate( -208.59375, 90)"><tspan xml:space="preserve" dy="1em" x="0" class="title-row">+parseEmotionOption(String) : Emotion</tspan></text></g></g><g class="node default" id="classId-ConsoleView-6" data-node="true" data-id="ConsoleView" transform="translate(779.103515625, 231)"><rect style="" class="outer title-state" x="-139.87890625" y="-60" width="279.7578125" height="120"></rect><line class="divider" x1="-139.87890625" x2="139.87890625" y1="-31" y2="-31"></line><line class="divider" x1="-139.87890625" x2="139.87890625" y1="27" y2="27"></line><g class="label"><text style=""><tspan xml:space="preserve" dy="1em" x="0" class="title-row"></tspan></text><text style="" class="classTitle" transform="translate( -49.921875, -52.5)"><tspan xml:space="preserve" dy="1em" x="0" class="title-row">ConsoleView</tspan></text><text style="" transform="translate( -132.37890625, -19.5)"><tspan xml:space="preserve" dy="1em" x="0" class="title-row">-MomentController momentController</tspan></text><text style="" transform="translate( -132.37890625, 1.5)"><tspan xml:space="preserve" dy="1em" x="0" class="title-row">-Scanner scanner</tspan></text><text style="" transform="translate( -132.37890625, 34.5)"><tspan xml:space="preserve" dy="1em" x="0" class="title-row">+run() : void</tspan></text></g></g><g class="node default" id="classId-App-7" data-node="true" data-id="App" transform="translate(643.556640625, 47.5)"><rect style="" class="outer title-state" x="-81.53125" y="-39.5" width="163.0625" height="79"></rect><line class="divider" x1="-81.53125" x2="81.53125" y1="-9.5" y2="-9.5"></line><line class="divider" x1="-81.53125" x2="81.53125" y1="6.5" y2="6.5"></line><g class="label"><text style=""><tspan xml:space="preserve" dy="1em" x="0" class="title-row"></tspan></text><text style="" class="classTitle" transform="translate( -15.6640625, -32)"><tspan xml:space="preserve" dy="1em" x="0" class="title-row">App</tspan></text><text style="" transform="translate( -74.03125, 14)"><tspan xml:space="preserve" dy="1em" x="0" class="title-row">+main(String[]) : void</tspan></text></g></g></g></g></g></svg>